<?xml version="1.0" standalone="no"?>
<!DOCTYPE svg PUBLIC "-//W3C//DTD SVG 20010904//EN"
 "http://www.w3.org/TR/2001/REC-SVG-20010904/DTD/svg10.dtd">
<svg version="1.0" xmlns="http://www.w3.org/2000/svg"
 width="800.000000pt" height="665.000000pt" viewBox="0 0 800.000000 665.000000"
 preserveAspectRatio="xMidYMid meet">
<metadata>
Created by potrace 1.14, written by Peter Selinger 2001-2017
</metadata>
<g transform="translate(0.000000,665.000000) scale(0.100000,-0.100000)"
fill="#000000" stroke="none">
<path d="M2131 6506 c-19 -22 -60 -154 -81 -258 -41 -200 -36 -417 15 -591
l23 -81 -48 -55 c-137 -161 -241 -375 -285 -588 -56 -271 -22 -775 69 -1032
l16 -44 -157 7 c-357 16 -1051 -36 -1357 -100 -76 -16 -81 -18 -72 -32 3 -5
59 0 135 14 155 27 432 60 626 73 209 15 637 23 743 14 l94 -8 24 -59 c13 -32
21 -62 18 -67 -3 -5 -41 -9 -84 -9 -103 0 -413 -25 -620 -50 -278 -34 -574
-88 -799 -146 -132 -34 -131 -33 -125 -49 5 -11 13 -11 56 1 285 85 858 176
1273 204 360 23 322 24 341 -7 104 -172 243 -321 393 -422 239 -159 574 -272
956 -322 l90 -12 -70 -71 c-83 -84 -135 -170 -167 -274 l-23 -75 -60 -27
c-103 -47 -189 -64 -315 -65 -95 0 -128 4 -188 24 -145 47 -245 131 -359 301
-151 224 -313 332 -505 334 -73 1 -91 -2 -115 -20 -15 -12 -29 -28 -31 -37 -5
-27 55 -82 140 -127 126 -68 223 -170 323 -340 43 -74 98 -160 121 -191 171
-224 439 -329 760 -298 59 5 126 14 148 19 23 5 44 10 49 10 4 0 7 -177 7
-393 l0 -394 -31 -61 c-35 -72 -67 -101 -160 -148 -69 -34 -89 -55 -89 -93 0
-37 37 -51 136 -51 228 0 412 100 476 258 22 56 23 67 28 542 6 455 7 489 27
547 21 63 57 123 74 123 6 0 9 -266 7 -728 l-3 -727 -23 -43 c-12 -23 -42 -56
-65 -73 -48 -35 -66 -62 -67 -101 -1 -89 145 -91 313 -7 71 36 126 85 165 147
63 99 62 84 62 869 0 473 3 721 10 734 14 26 66 26 80 0 6 -13 10 -266 10
-745 0 -644 2 -730 16 -773 42 -124 146 -215 305 -269 134 -45 219 -22 219 62
0 19 -14 39 -51 73 -58 52 -82 93 -98 169 -14 68 -16 1402 -1 1402 14 0 56
-77 76 -140 15 -48 18 -114 24 -530 5 -464 6 -476 28 -532 63 -157 248 -258
471 -258 95 0 131 15 131 53 0 36 -26 64 -91 98 -67 36 -117 90 -151 165 -23
49 -23 55 -29 604 -4 305 -10 571 -13 590 -36 177 -90 284 -198 393 l-77 77
32 0 c111 0 462 72 630 129 322 109 534 261 683 491 27 41 58 95 68 118 l20
43 105 -6 c390 -22 660 -50 941 -96 180 -29 487 -95 582 -123 40 -12 47 -13
52 -1 6 16 -3 19 -189 64 -398 98 -823 154 -1393 184 -40 3 -75 6 -77 9 -3 2
4 32 16 65 l20 61 179 7 c362 15 890 -19 1270 -81 85 -14 161 -26 169 -27 8
-1 16 3 18 10 5 13 -45 25 -225 52 -343 53 -640 74 -1065 74 -283 1 -337 3
-332 15 11 29 44 212 57 312 7 62 13 217 13 375 0 247 -2 279 -23 374 -56 250
-142 426 -302 616 l-76 91 13 49 c39 157 41 368 4 552 -22 105 -63 237 -82
259 -7 9 -32 14 -68 14 -207 0 -480 -107 -817 -319 l-51 -32 -120 25 c-200 42
-336 57 -585 63 -332 8 -584 -16 -865 -82 l-106 -25 -106 67 c-144 92 -367
203 -481 241 -170 57 -353 80 -379 48z m1385 -1702 c290 -21 615 -21 909 1
428 31 649 14 802 -63 175 -89 351 -316 397 -512 9 -36 16 -111 16 -170 0
-204 -33 -368 -103 -515 -142 -295 -423 -438 -947 -484 -334 -30 -942 -22
-1239 14 -554 69 -876 270 -995 621 -39 117 -51 200 -51 359 0 131 3 159 24
220 32 95 80 180 153 270 129 162 258 232 488 268 64 10 348 5 546 -9z"/>
<path d="M3021 4329 c-184 -94 -201 -463 -29 -602 51 -41 127 -48 186 -18 150
77 197 381 83 538 -69 95 -156 125 -240 82z m24 -114 c30 -29 32 -64 5 -93
-26 -28 -67 -28 -97 0 -30 28 -29 63 2 93 31 32 59 32 90 0z"/>
<path d="M4819 4327 c-169 -90 -202 -422 -56 -576 165 -174 398 40 357 329
-17 122 -74 215 -155 251 -54 25 -93 24 -146 -4z"/>
<path d="M3921 3643 c-12 -10 -24 -34 -27 -54 -5 -28 -1 -41 18 -63 50 -58
148 -22 148 55 0 65 -88 104 -139 62z"/>
<path d="M3775 3380 c-11 -18 39 -93 83 -125 39 -27 52 -30 116 -30 63 0 78 4
115 28 46 31 81 80 81 115 0 36 -32 26 -58 -18 -26 -46 -84 -80 -137 -80 -53
0 -111 34 -137 80 -22 38 -50 51 -63 30z"/>
</g>
</svg>
